<?xml version="1.0" encoding="UTF-8" standalone="no"?>
<svg
   xmlns:dc="http://purl.org/dc/elements/1.1/"
   xmlns:cc="http://creativecommons.org/ns#"
   xmlns:rdf="http://www.w3.org/1999/02/22-rdf-syntax-ns#"
   xmlns:svg="http://www.w3.org/2000/svg"
   xmlns="http://www.w3.org/2000/svg"
   viewBox="0 0 755.90399 755.90668"
   height="755.90668"
   width="755.90399"
   xml:space="preserve"
   id="svg2"
   version="1.1"><metadata
     id="metadata8"><rdf:RDF><cc:Work
         rdf:about=""><dc:format>image/svg+xml</dc:format><dc:type
           rdf:resource="http://purl.org/dc/dcmitype/StillImage" /></cc:Work></rdf:RDF></metadata><defs
     id="defs6"><clipPath
       id="clipPath14"
       clipPathUnits="userSpaceOnUse"><path
         id="path12"
         d="M 0,0 H 1190.55 V 841.89 H 0 Z" /></clipPath><clipPath
       id="clipPath24"
       clipPathUnits="userSpaceOnUse"><path
         id="path22"
         d="M 0,841.89 H 1190.551 V 0 H 0 Z" /></clipPath></defs><g
     clip-path="url(#clipPath14)"
     transform="matrix(1.3333333,0,0,-1.3333333,-415.748,939.21333)"
     id="g10"><path
       id="path16"
       style="fill:#30639c;fill-opacity:1;fill-rule:nonzero;stroke:none"
       d="M 0,0 H 1190.551 V 841.89 H 0 Z" /><g
       id="g18"><g
         clip-path="url(#clipPath24)"
         id="g20"><g
           transform="translate(844.8848,236.7197)"
           id="g26"><path
             id="path28"
             style="fill:#ffffff;fill-opacity:1;fill-rule:nonzero;stroke:none"
             d="m 0,0 c -30.928,10.123 -83.787,20.339 -122.046,20.339 -20.049,0 -39.933,-1.629 -58.718,-4.758 l 16.82,8.196 c 0.027,0.009 0.045,0.018 0.073,0.028 1.237,0.49 2.465,0.991 3.692,1.501 0.028,0.018 0.055,0.027 0.083,0.036 1.237,0.518 2.465,1.046 3.693,1.583 0.018,0.009 0.045,0.017 0.063,0.026 1.229,0.537 2.447,1.083 3.666,1.648 0.028,0.008 0.055,0.017 0.082,0.036 1.21,0.554 2.41,1.118 3.612,1.701 0.044,0.018 0.082,0.036 0.118,0.054 1.191,0.564 2.365,1.147 3.548,1.738 0.063,0.036 0.126,0.072 0.19,0.1 1.146,0.582 2.292,1.164 3.43,1.764 0.099,0.046 0.19,0.101 0.291,0.155 1.1,0.582 2.21,1.165 3.301,1.765 0.137,0.081 0.274,0.154 0.411,0.228 1.054,0.581 2.1,1.164 3.146,1.764 0.191,0.11 0.373,0.218 0.556,0.319 0.991,0.572 1.991,1.145 2.973,1.737 0.237,0.137 0.483,0.291 0.719,0.427 0.928,0.564 1.857,1.119 2.775,1.692 0.3,0.182 0.6,0.373 0.901,0.555 0.853,0.536 1.71,1.074 2.564,1.628 0.373,0.237 0.738,0.482 1.102,0.718 0.781,0.51 1.563,1.01 2.337,1.529 0.455,0.3 0.9,0.619 1.355,0.919 0.683,0.464 1.365,0.927 2.047,1.392 0.555,0.391 1.11,0.791 1.664,1.182 0.573,0.4 1.138,0.801 1.701,1.21 0.701,0.5 1.393,1.01 2.083,1.519 0.419,0.309 0.837,0.619 1.256,0.927 1.11,0.828 2.21,1.665 3.311,2.521 0.046,0.036 0.073,0.082 0.118,0.118 41.999,-1.992 91.601,-11.689 124.176,-21.559 L -8.978,25.597 Z m -249.605,45.126 c -29.819,0 -58.599,-5.521 -83.35,-15.973 -18.411,7.286 -35.795,16.964 -51.75,28.826 8.687,4.249 17.848,8.06 27.39,11.417 3.902,1.382 7.868,2.674 11.888,3.893 2.674,0.818 5.376,1.602 8.096,2.338 0.837,0.227 1.674,0.455 2.52,0.672 0.809,0.22 1.619,0.429 2.429,0.629 0.545,0.145 1.101,0.291 1.655,0.418 l 0.009,0.009 c 8.715,2.174 17.647,4.002 26.735,5.458 0.701,0.119 1.409,0.228 2.119,0.328 1.31,0.208 2.629,0.409 3.948,0.582 1.782,0.263 3.565,0.5 5.358,0.718 4.92,0.627 9.878,1.147 14.864,1.546 0.317,0.028 0.636,0.055 0.954,0.083 2.137,0.163 4.276,0.318 6.422,0.436 1.338,0.091 2.674,0.164 4.02,0.219 5.541,0.272 11.108,0.409 16.693,0.409 3.12,0 6.231,-0.046 9.341,-0.128 1.119,-0.027 2.239,-0.063 3.349,-0.11 3.384,-0.118 6.758,-0.291 10.124,-0.508 4.894,-0.328 9.77,-0.755 14.608,-1.291 0.847,-0.092 1.684,-0.183 2.521,-0.284 1.592,-0.18 3.183,-0.381 4.766,-0.59 h 0.009 c 1.455,-0.192 2.893,-0.392 4.338,-0.601 0.629,-0.081 1.247,-0.182 1.866,-0.281 8.586,-1.274 17.037,-2.894 25.315,-4.821 1.01,-0.228 2.011,-0.464 3.011,-0.709 1.437,-0.347 2.847,-0.702 4.265,-1.075 h 0.01 c 0.228,-0.054 0.455,-0.109 0.683,-0.173 2.583,-0.672 5.148,-1.374 7.695,-2.11 4.157,-1.201 8.26,-2.482 12.298,-3.848 0.774,-0.254 1.547,-0.527 2.31,-0.8 h 0.01 c 0.801,-0.264 1.592,-0.546 2.383,-0.827 6.932,-2.484 13.663,-5.205 20.148,-8.161 2.038,-0.918 4.049,-1.864 6.04,-2.838 -0.082,-0.063 -0.173,-0.126 -0.254,-0.181 -15.874,-11.779 -33.175,-21.395 -51.495,-28.645 -24.751,10.452 -53.532,15.973 -83.341,15.973 M -377.173,20.339 C -415.442,20.339 -468.292,10.123 -499.21,0 l 8.969,25.597 -26.071,9.141 c 32.575,9.87 82.177,19.567 124.175,21.559 0.036,-0.036 0.073,-0.082 0.118,-0.118 1.101,-0.865 2.22,-1.711 3.338,-2.538 0.429,-0.328 0.856,-0.637 1.284,-0.946 0.691,-0.519 1.382,-1.028 2.083,-1.529 0.573,-0.408 1.146,-0.81 1.719,-1.219 0.574,-0.399 1.127,-0.801 1.701,-1.2 0.692,-0.482 1.4,-0.946 2.101,-1.429 0.446,-0.299 0.892,-0.609 1.346,-0.909 0.846,-0.564 1.701,-1.118 2.556,-1.674 0.31,-0.2 0.619,-0.409 0.928,-0.609 0.974,-0.618 1.947,-1.229 2.93,-1.838 0.2,-0.127 0.39,-0.255 0.591,-0.372 1.064,-0.655 2.128,-1.293 3.193,-1.93 0.127,-0.072 0.245,-0.153 0.363,-0.227 1.137,-0.663 2.275,-1.327 3.42,-1.973 0.055,-0.036 0.118,-0.073 0.183,-0.109 1.2,-0.683 2.41,-1.356 3.62,-2.011 0,0 0,-0.009 0.009,-0.009 8.523,-4.639 17.329,-8.741 26.38,-12.28 l 15.445,-7.732 c -18.674,3.093 -38.433,4.694 -58.344,4.694 m -23.96,53.087 c -3.083,3.656 -5.294,7.476 -6.858,10.851 -1.365,2.948 -2.238,5.558 -2.766,7.442 -0.173,0.582 -0.301,1.1 -0.409,1.537 4.03,0.236 7.877,0.163 11.524,-0.228 1.547,-0.164 3.048,-0.382 4.512,-0.664 2.038,-0.382 4.012,-0.873 5.913,-1.473 0.474,-0.146 0.956,-0.3 1.419,-0.465 7.469,-2.592 13.863,-6.876 19.14,-12.834 0.226,-0.255 0.444,-0.519 0.663,-0.774 1.128,-1.328 2.12,-2.665 3.02,-3.984 -0.254,-0.101 -0.509,-0.191 -0.763,-0.291 -0.228,-0.091 -0.455,-0.173 -0.683,-0.273 -0.328,-0.119 -0.645,-0.237 -0.965,-0.373 -0.227,-0.073 -0.455,-0.164 -0.682,-0.254 l 0.009,-0.01 c -0.472,-0.172 -0.945,-0.355 -1.41,-0.545 -0.354,-0.138 -0.719,-0.282 -1.073,-0.428 -0.563,-0.219 -1.118,-0.446 -1.674,-0.673 -0.108,-0.046 -0.218,-0.091 -0.327,-0.136 -0.382,-0.164 -0.765,-0.319 -1.138,-0.483 -0.172,-0.063 -0.336,-0.137 -0.508,-0.209 -0.309,-0.118 -0.61,-0.255 -0.918,-0.383 -0.511,-0.209 -1.02,-0.426 -1.53,-0.654 -0.645,-0.281 -1.291,-0.563 -1.937,-0.847 -1.036,-0.454 -2.056,-0.918 -3.074,-1.381 -2.556,-1.174 -5.077,-2.374 -7.55,-3.612 0.446,0.237 0.89,0.455 1.337,0.673 -5.058,2.501 -9.488,5.977 -13.272,10.471 m -11.426,24.715 c -0.381,-0.01 -0.79,-0.11 -1.191,-0.264 l -0.272,-0.119 c -0.329,-0.146 -0.619,-0.336 -0.901,-0.572 l -0.155,-0.101 -0.109,-0.136 -0.218,-0.164 -0.127,-0.246 c -0.2,-0.235 -0.373,-0.555 -0.52,-0.936 -0.062,-0.119 -0.09,-0.246 -0.127,-0.365 -0.018,-0.072 -0.036,-0.154 -0.053,-0.236 -8.515,5.804 -14.519,13.545 -17.939,23.178 -0.155,0.436 -0.301,0.864 -0.436,1.3 -0.146,0.428 -0.273,0.865 -0.401,1.291 -0.082,0.274 -0.164,0.555 -0.236,0.829 -0.065,0.227 -0.127,0.455 -0.183,0.673 6.823,2.82 13.408,6.24 19.768,10.251 h 0.009 c 1.345,-1.008 2.636,-2.074 3.865,-3.192 0.219,-0.201 0.436,-0.393 0.646,-0.592 -0.218,0.209 -0.437,0.418 -0.655,0.618 0.445,-0.399 0.892,-0.809 1.318,-1.227 0.038,-0.037 0.074,-0.072 0.11,-0.118 -0.036,0.027 -0.072,0.063 -0.11,0.1 0.065,-0.054 0.12,-0.119 0.183,-0.181 0.364,-0.346 0.719,-0.702 1.073,-1.065 h 0.01 c 0.272,-0.283 0.545,-0.573 0.809,-0.865 0.008,0 0.018,-0.008 0.008,-0.018 0.265,-0.291 0.529,-0.582 0.792,-0.873 0.264,-0.291 0.519,-0.591 0.764,-0.891 v -0.009 c 0.073,-0.092 0.155,-0.174 0.219,-0.264 0.009,-0.009 0.009,-0.019 0.018,-0.019 0,-0.008 0.009,-0.008 0.009,-0.018 l 0.036,-0.036 c 0.164,-0.183 0.319,-0.382 0.464,-0.573 v -0.009 c 0.073,-0.091 0.147,-0.173 0.21,-0.265 0.027,-0.026 0.054,-0.062 0.072,-0.089 0.01,-0.01 0.01,-0.01 0.019,-0.02 0.145,-0.182 0.291,-0.363 0.427,-0.555 0.364,-0.472 0.718,-0.954 1.055,-1.445 0.61,-0.865 1.193,-1.747 1.746,-2.656 v -0.019 c -0.062,-0.164 -0.118,-0.336 -0.163,-0.5 -0.045,-0.109 -0.064,-0.227 -0.073,-0.337 l -0.036,-0.2 c -0.027,-0.309 -0.027,-0.618 0.009,-0.927 v -0.019 c 0.027,-0.392 0.082,-1.046 0.182,-1.91 0.382,-3.275 1.492,-9.606 4.649,-16.537 -4.34,0.545 -9.079,0.692 -14.254,0.336 -0.109,-0.008 -0.21,0 -0.311,-0.008 m -27.27,28.689 c -5.057,9.998 -11.151,23.553 -14.964,34.545 11.198,2.511 26.289,8.896 39.615,16.828 8.741,5.213 23.368,15.092 31.837,27.181 2.302,-7.659 5.504,-16.837 8.979,-24.152 -0.164,-0.236 -0.327,-0.462 -0.482,-0.691 -0.973,-1.373 -1.947,-2.728 -2.938,-4.057 -1.201,-1.619 -2.411,-3.202 -3.639,-4.748 -1.792,-2.264 -3.621,-4.448 -5.475,-6.578 -0.938,-1.072 -1.884,-2.128 -2.858,-3.166 -1.3,-1.428 -2.628,-2.82 -3.983,-4.184 -5.085,-5.159 -10.398,-9.817 -15.91,-13.984 -1.71,-1.292 -3.448,-2.538 -5.204,-3.73 -2.037,-1.401 -4.092,-2.72 -6.185,-3.975 -5.048,-3.049 -10.252,-5.715 -15.591,-7.978 -1.064,-0.455 -2.129,-0.893 -3.202,-1.311 m -23.731,69.98 c 7.288,-1.083 14.728,-1.656 22.242,-1.73 -0.119,-5.984 0.799,-12.67 3.729,-19.447 -0.01,-0.136 -0.018,-0.264 -0.036,-0.401 -0.073,-0.681 -0.154,-1.355 -0.255,-2.009 -6.677,-2.848 -13.071,-5.003 -18.438,-6.176 -6.114,9.232 -8.542,19.183 -7.242,29.763 m 27.154,-3.839 c -0.019,0.728 -0.019,1.437 -0.009,2.137 0.636,0 1.272,0.019 1.919,0.046 6.568,0.182 13.172,0.746 19.794,1.683 1.682,-2.829 3.038,-5.776 4.047,-8.823 -2.373,-1.612 -4.885,-3.203 -7.513,-4.768 -4.558,-2.72 -9.333,-5.248 -14.055,-7.476 -0.09,-0.045 -0.19,-0.092 -0.281,-0.137 0.018,0.199 0.036,0.41 0.055,0.609 -2.475,5.176 -3.794,10.77 -3.957,16.729 m 41.404,7.746 c -3.211,-3.211 -7.013,-6.432 -11.297,-9.596 -1.083,2.146 -1.947,4.365 -2.63,6.649 4.658,0.8 9.297,1.774 13.927,2.947 m -70.625,21.431 c -0.062,2.092 -0.1,4.239 -0.109,6.395 2.147,-0.082 4.295,-0.146 6.45,-0.146 15.572,0 31.456,2.111 47.201,6.268 7.468,1.974 14.728,4.476 23.05,7.96 0.227,-11.098 1.665,-22.114 4.321,-32.839 -0.337,-0.109 -0.674,-0.227 -1.01,-0.337 -17.81,-5.638 -35.931,-8.505 -53.86,-8.505 -8.359,0 -16.627,0.638 -24.623,1.893 -0.746,6.413 -1.219,12.898 -1.42,19.311 m 4.53,51.595 c 30.592,-16.983 48.684,-22.796 65.84,-27.325 -6.458,-2.557 -12.325,-4.494 -18.329,-6.077 -17.438,-4.603 -35.058,-6.612 -52.168,-5.94 0.419,13.245 1.983,26.453 4.657,39.342 m 6.304,25.724 c 5.104,9.324 12.408,15.037 15.4,17.12 7.815,-17.047 8.079,-32.847 0.791,-46.937 -0.135,-0.274 -0.281,-0.538 -0.426,-0.8 -6.331,3.074 -13.299,6.703 -21.059,11.06 0.155,6.841 1.91,13.371 5.294,19.557 m 21.141,41.116 c 6.249,8.605 14.217,13.335 17.455,15.019 5.185,-16.702 4.011,-31.483 -3.492,-43.991 -2.775,-2.119 -6.259,-5.148 -9.679,-9.105 -1.046,5.293 -2.875,10.951 -5.695,16.973 -0.044,0.084 -0.081,0.201 -0.127,0.283 -0.155,0.363 -0.4,0.727 -0.709,1.064 l -0.218,0.219 c -0.246,0.236 -0.556,0.463 -0.873,0.645 l -0.164,0.119 -0.173,0.045 -0.236,0.146 -0.284,0.035 c -0.308,0.1 -0.681,0.147 -1.109,0.155 -0.127,0 -0.264,-0.008 -0.391,-0.018 -0.227,-0.027 -0.518,-0.064 -0.773,-0.137 -0.118,-0.027 -0.228,-0.072 -0.346,-0.108 l -0.181,-0.073 c -0.301,-0.127 -0.582,-0.283 -0.837,-0.483 0.982,6.95 3.584,13.372 7.832,19.212 m 33.711,38.441 c 8.677,6.16 17.719,8.096 21.331,8.669 -0.273,-11.97 -3.093,-22.131 -8.406,-30.39 -0.209,-0.046 -0.408,-0.1 -0.599,-0.183 h -0.019 c -2.201,-0.727 -11.77,-4.175 -20.894,-12.243 -0.564,4.102 -1.537,8.441 -3.021,13.035 -0.017,0.1 -0.045,0.209 -0.081,0.31 -0.109,0.372 -0.301,0.772 -0.556,1.136 l -0.19,0.255 c -0.228,0.272 -0.501,0.528 -0.81,0.746 l -0.127,0.137 -0.155,0.071 -0.227,0.173 -0.263,0.073 c -0.183,0.083 -0.383,0.146 -0.601,0.201 3.148,7.295 8.023,13.316 14.618,18.01 m 32.956,22.396 c 11.161,4.111 21.486,3.557 25.543,3.11 -1.874,-6.331 -4.285,-11.997 -7.223,-17.001 -9.47,-3.502 -19.366,-10.297 -26.625,-23.105 -0.965,-0.381 -1.91,-0.718 -2.856,-1.028 2.774,6.84 4.547,15.074 4.684,24.999 0,0.107 0.018,0.209 0.018,0.317 0.018,0.392 -0.045,0.837 -0.172,1.255 l -0.091,0.301 c -0.128,0.336 -0.31,0.664 -0.519,0.973 l -0.091,0.163 -0.136,0.119 -0.154,0.237 -0.219,0.164 c -0.255,0.217 -0.556,0.418 -0.946,0.617 -0.11,0.064 -0.228,0.109 -0.365,0.155 -0.208,0.091 -0.491,0.163 -0.754,0.219 -0.128,0.018 -0.237,0.036 -0.346,0.045 l -0.218,0.028 c -0.318,0.008 -0.637,-0.019 -0.955,-0.073 l -0.019,-0.009 c -0.681,-0.083 -2.1,-0.301 -4.029,-0.738 4.457,4.004 9.614,7.096 15.473,9.252 m 24.214,20.494 c 4.139,-4.476 11.671,-10.088 21.377,-15.846 -5.176,-5.048 -10.96,-8.787 -17.329,-11.188 1.111,2.774 2.129,5.73 3.038,8.895 0.028,0.119 0.082,0.219 0.11,0.336 0.127,0.428 0.191,0.91 0.181,1.393 l -0.008,0.354 c -0.046,0.41 -0.136,0.82 -0.283,1.219 l -0.054,0.192 -0.082,0.181 -0.11,0.292 -0.199,0.237 c -0.2,0.308 -0.482,0.626 -0.828,0.936 -0.109,0.109 -0.228,0.191 -0.346,0.282 -0.21,0.145 -0.482,0.31 -0.755,0.455 -0.118,0.055 -0.245,0.118 -0.364,0.155 l -0.218,0.082 c -0.337,0.118 -0.701,0.181 -1.055,0.209 l -0.019,0.008 c -2.21,0.3 -11.506,1.302 -22.586,-1.354 5.631,6.268 12.154,10.67 19.53,13.162 m 52.642,17.565 c -0.047,-0.237 -0.064,-0.482 -0.037,-0.728 0.291,-3.366 4.52,-18.565 11.371,-32.728 3.392,-7.023 6.903,-12.781 10.515,-17.265 -30.136,9.205 -58.917,25.369 -69.397,35.812 10.925,6.613 32.665,12.944 47.548,14.909 m 40.887,5.412 c 17.52,0 31.028,-3.001 34.949,-6.058 -3.001,-10.569 -18.711,-56.124 -34.211,-56.124 -18.794,0 -33.693,45.545 -35.723,55.215 5.458,4.258 18.858,6.967 34.985,6.967 m 35.887,-21.321 c 1.682,4.584 2.946,8.459 3.71,10.897 0.437,1.373 0.765,2.474 0.983,3.228 0.099,0.356 0.2,0.701 0.282,1.047 14.445,-2.529 32.965,-8.232 42.771,-14.163 -6.022,-5.975 -18.174,-13.909 -32.246,-20.949 -10.342,-5.176 -21.095,-9.624 -31.637,-13.135 6.476,9.196 11.971,21.713 16.137,33.075 m 52.84,-1.656 c 7.377,-2.492 13.909,-6.894 19.539,-13.162 -11.088,2.656 -20.376,1.654 -22.595,1.354 l -0.009,-0.008 c -0.364,-0.028 -0.719,-0.091 -1.056,-0.209 l -0.227,-0.082 c -0.118,-0.037 -0.236,-0.1 -0.354,-0.155 -0.283,-0.145 -0.547,-0.31 -0.765,-0.455 -0.11,-0.091 -0.227,-0.173 -0.337,-0.282 -0.354,-0.31 -0.627,-0.628 -0.827,-0.936 l -0.209,-0.237 -0.101,-0.292 -0.081,-0.181 -0.064,-0.192 c -0.136,-0.399 -0.237,-0.809 -0.272,-1.219 l -0.019,-0.354 c -0.008,-0.483 0.054,-0.965 0.182,-1.393 0.026,-0.117 0.082,-0.217 0.118,-0.336 0.901,-3.165 1.92,-6.121 3.038,-8.895 -0.636,0.236 -1.263,0.481 -1.873,0.745 -4.94,2.102 -9.497,5.039 -13.691,8.787 -0.591,0.537 -1.183,1.092 -1.764,1.656 9.705,5.758 17.228,11.37 21.367,15.846 m 24.214,-20.494 c 5.859,-2.156 11.026,-5.248 15.483,-9.252 -1.938,0.437 -3.357,0.655 -4.03,0.738 l -0.027,0.009 c -0.31,0.054 -0.637,0.081 -0.946,0.073 l -0.228,-0.028 c -0.109,-0.009 -0.219,-0.027 -0.346,-0.045 -0.254,-0.056 -0.536,-0.128 -0.746,-0.219 -0.135,-0.046 -0.254,-0.091 -0.373,-0.155 -0.382,-0.199 -0.681,-0.4 -0.935,-0.617 l -0.228,-0.164 -0.155,-0.237 -0.128,-0.119 -0.091,-0.163 c -0.209,-0.309 -0.39,-0.637 -0.527,-0.973 l -0.082,-0.301 c -0.137,-0.418 -0.191,-0.863 -0.173,-1.255 0,-0.108 0.009,-0.21 0.019,-0.317 0.126,-9.925 1.901,-18.159 4.684,-24.999 -0.946,0.31 -1.901,0.647 -2.865,1.028 -7.25,12.808 -17.156,19.603 -26.616,23.105 -2.938,5.004 -5.349,10.67 -7.223,17.001 4.049,0.447 14.381,1.001 25.533,-3.11 m 32.957,-22.396 c 6.595,-4.694 11.471,-10.715 14.618,-18.01 -0.21,-0.055 -0.41,-0.118 -0.591,-0.201 l -0.264,-0.073 -0.228,-0.173 -0.164,-0.071 -0.127,-0.137 c -0.309,-0.218 -0.573,-0.474 -0.809,-0.746 l -0.183,-0.255 c -0.263,-0.364 -0.444,-0.764 -0.563,-1.136 -0.028,-0.101 -0.055,-0.21 -0.082,-0.31 -1.474,-4.594 -2.455,-8.933 -3.02,-13.035 -9.115,8.068 -18.683,11.516 -20.894,12.243 h -0.009 c -0.2,0.083 -0.402,0.137 -0.601,0.183 -5.312,8.259 -8.141,18.42 -8.415,30.39 3.612,-0.573 12.654,-2.509 21.332,-8.669 m 33.72,-38.441 c 4.239,-5.84 6.85,-12.262 7.823,-19.212 -0.255,0.2 -0.527,0.356 -0.828,0.483 l -0.191,0.073 c -0.109,0.036 -0.217,0.081 -0.336,0.108 -0.264,0.073 -0.546,0.11 -0.774,0.137 -0.127,0.01 -0.272,0.018 -0.4,0.018 -0.418,-0.008 -0.791,-0.055 -1.101,-0.155 l -0.281,-0.035 -0.246,-0.146 -0.164,-0.045 -0.163,-0.119 c -0.319,-0.182 -0.628,-0.409 -0.883,-0.645 l -0.218,-0.219 c -0.301,-0.337 -0.546,-0.701 -0.71,-1.064 -0.045,-0.082 -0.072,-0.199 -0.118,-0.283 -2.829,-6.022 -4.648,-11.68 -5.704,-16.973 -3.411,3.957 -6.895,6.986 -9.678,9.105 -7.496,12.508 -8.677,27.289 -3.493,43.991 3.248,-1.684 11.216,-6.414 17.465,-15.019 m 21.131,-41.116 c 3.384,-6.186 5.139,-12.716 5.304,-19.557 -7.769,-4.357 -14.727,-7.986 -21.058,-11.06 -0.146,0.262 -0.292,0.526 -0.438,0.8 -7.286,14.09 -7.012,29.89 0.792,46.937 2.993,-2.083 10.297,-7.796 15.4,-17.12 m 10.961,-65.066 c -17.11,-0.672 -34.721,1.337 -52.167,5.94 -5.995,1.583 -11.863,3.52 -18.321,6.077 17.147,4.529 35.249,10.342 65.832,27.325 2.682,-12.889 4.248,-26.097 4.656,-39.342 m -0.127,-12.262 c -0.191,-6.404 -0.663,-12.889 -1.419,-19.302 -7.986,-1.255 -16.265,-1.893 -24.624,-1.893 -17.929,0 -36.049,2.867 -53.842,8.505 -0.346,0.11 -0.683,0.228 -1.027,0.337 2.665,10.725 4.101,21.741 4.329,32.839 8.314,-3.484 15.573,-5.986 23.041,-7.96 15.747,-4.157 31.629,-6.268 47.202,-6.268 2.156,0 4.311,0.064 6.449,0.146 -0.009,-2.147 -0.036,-4.293 -0.109,-6.404 m -9.296,-55.087 c -5.367,1.173 -11.753,3.339 -18.43,6.184 -0.091,0.656 -0.181,1.321 -0.255,2.002 -0.008,0.137 -0.018,0.282 -0.027,0.428 2.92,6.777 3.839,13.444 3.721,19.42 7.531,0.083 14.991,0.656 22.249,1.721 1.292,-10.571 -1.146,-20.523 -7.258,-29.755 m -45.628,20.975 c 1.019,3.057 2.355,6.004 4.038,8.833 7.242,-1.018 14.473,-1.62 21.695,-1.756 0.019,-0.7 0.019,-1.409 0,-2.137 -0.163,-6.141 -1.574,-11.88 -4.193,-17.192 -4.721,2.229 -9.487,4.748 -14.053,7.468 -2.63,1.573 -5.113,3.165 -7.487,4.784 m -15.7,12.69 c 4.63,-1.173 9.277,-2.147 13.926,-2.947 -0.673,-2.284 -1.546,-4.503 -2.62,-6.649 -4.293,3.164 -8.095,6.385 -11.306,9.596 m 47.646,-68.174 c -0.965,-1.992 -1.91,-3.912 -2.82,-5.713 -1.073,0.418 -2.137,0.856 -3.201,1.311 -5.34,2.263 -10.534,4.922 -15.582,7.968 -1.756,1.055 -3.485,2.157 -5.195,3.311 -0.336,0.21 -0.672,0.437 -1.001,0.674 -1.754,1.192 -3.482,2.429 -5.193,3.73 -5.513,4.158 -10.824,8.825 -15.919,13.984 -1.346,1.364 -2.674,2.756 -3.974,4.184 -0.974,1.038 -1.92,2.094 -2.857,3.166 -1.856,2.13 -3.684,4.322 -5.485,6.588 -1.22,1.545 -2.438,3.128 -3.629,4.738 -0.991,1.329 -1.966,2.684 -2.939,4.057 -0.155,0.229 -0.318,0.455 -0.482,0.691 3.466,7.315 6.667,16.493 8.977,24.152 8.47,-12.089 23.097,-21.968 31.838,-27.181 13.318,-7.932 28.409,-14.317 39.606,-16.828 -3.129,-9.018 -7.786,-19.752 -12.144,-28.832 m -8.477,-14.363 c -3.42,-9.633 -9.425,-17.374 -17.929,-23.178 -0.019,0.082 -0.046,0.164 -0.064,0.236 -0.036,0.119 -0.064,0.246 -0.119,0.365 -0.144,0.381 -0.318,0.701 -0.517,0.936 l -0.128,0.246 -0.219,0.164 -0.108,0.136 -0.155,0.101 c -0.283,0.236 -0.583,0.426 -0.901,0.572 l -0.282,0.119 c -0.4,0.154 -0.81,0.254 -1.183,0.264 -0.109,0.008 -0.208,0 -0.308,0.008 -5.177,0.356 -9.916,0.209 -14.254,-0.345 3.156,6.94 4.266,13.289 4.648,16.564 0.109,0.856 0.154,1.5 0.182,1.892 l -0.01,0.019 c 0.046,0.309 0.046,0.618 0.01,0.927 l -0.037,0.2 c -0.009,0.11 -0.027,0.228 -0.063,0.337 -0.047,0.172 -0.109,0.346 -0.174,0.509 2.511,4.111 5.585,7.823 9.224,11.089 v 0.009 c 1.22,1.11 2.511,2.174 3.866,3.174 6.359,-4.011 12.953,-7.431 19.776,-10.251 -0.346,-1.346 -0.764,-2.71 -1.255,-4.093 m -83.324,-37.286 c 9.061,3.883 15.392,9.333 19.813,15.2 3.328,4.42 5.576,9.078 7.076,13.499 0.164,0.482 0.32,0.955 0.464,1.428 4.958,2.165 10.516,3.638 16.629,4.403 v 0.009 c 0.364,0.045 0.737,0.09 1.109,0.128 0.619,0.072 1.246,0.135 1.874,0.189 -0.136,-1.582 -0.491,-4.257 -1.319,-7.531 -0.873,-3.374 -2.265,-7.386 -4.494,-11.471 -0.826,-0.19 -1.637,-0.399 -2.438,-0.627 -14.163,-3.921 -23.086,-12.472 -28.544,-20.412 -3.584,1.237 -7.212,2.401 -10.888,3.502 0.119,0.572 0.355,1.137 0.718,1.683 m -17.473,20.102 c -0.764,-0.5 -1.556,-0.974 -2.375,-1.429 -5.33,-0.645 -10.069,-1.845 -14.273,-3.437 7.378,9.905 9.489,20.357 9.862,22.577 v 0.019 c 0.073,0.299 0.118,0.609 0.109,0.918 l -0.018,0.2 c 0,0.109 -0.009,0.237 -0.028,0.338 -0.036,0.272 -0.108,0.535 -0.181,0.745 -0.046,0.118 -0.073,0.245 -0.137,0.364 -0.163,0.363 -0.355,0.682 -0.564,0.918 l -0.136,0.228 -0.219,0.163 -0.108,0.129 -0.174,0.089 c -0.282,0.228 -0.591,0.401 -0.918,0.537 l -0.274,0.11 c -0.353,0.127 -0.709,0.19 -1.046,0.199 5.313,7.514 12.917,13.255 22.713,17.167 v 0.009 c 1.693,0.674 3.458,1.292 5.286,1.865 h 0.009 c 0.674,0.209 1.338,0.41 2.029,0.602 0.237,-2.467 0.492,-7.653 -0.682,-13.866 -0.337,-1.828 -0.811,-3.748 -1.438,-5.712 -0.255,-0.811 -0.536,-1.629 -0.855,-2.448 -0.564,-1.455 -1.192,-2.865 -1.882,-4.229 v -0.009 c -3.366,-6.568 -8.278,-11.926 -14.7,-16.047 M -191.47,88.435 h 0.009 c 5.668,3.201 12.18,5.266 19.503,6.185 l 1.174,0.137 c 1.309,0.136 2.656,0.245 4.02,0.308 0.955,0.046 1.919,0.082 2.893,0.091 -0.383,-2.274 -1.357,-6.804 -3.685,-12.007 h -0.008 c -0.064,0.019 -0.12,0.037 -0.182,0.045 -1.946,0.483 -3.902,0.947 -5.867,1.392 -6.014,1.365 -12.108,2.574 -18.284,3.602 0.146,0.083 0.291,0.164 0.427,0.247 m -36.704,6.067 c 0.564,1 1.192,2.019 1.874,3.056 0.828,1.237 1.737,2.492 2.746,3.749 0.065,0.08 0.128,0.163 0.201,0.235 0.983,1.201 2.011,2.329 3.083,3.393 4.103,4.103 8.87,7.294 14.264,9.569 5.103,2.156 10.779,3.494 17.001,3.994 1.811,0.154 3.666,0.228 5.576,0.236 0.555,0.01 1.128,0 1.693,-0.008 -0.683,-3.403 -2.858,-11.89 -8.979,-19.94 -0.072,-0.1 -0.145,-0.191 -0.219,-0.291 -0.982,-1.274 -2.018,-2.474 -3.119,-3.602 -1.947,-2.029 -4.076,-3.82 -6.368,-5.376 -3.048,0.436 -6.112,0.837 -9.196,1.182 -6.504,0.756 -13.071,1.319 -19.676,1.693 0.337,0.681 0.71,1.391 1.119,2.11 m -45.4,6.749 c -0.883,1.273 -1.856,2.547 -2.92,3.821 l 0.128,0.009 c 8.986,19.429 26.979,183.616 26.979,183.616 0,0 16.156,-151.123 25.398,-180.551 -1.438,-1.446 -2.73,-2.938 -3.894,-4.43 h -0.009 c -11.152,4.758 -26.999,7.132 -45.682,-2.465 m -1.628,-6.576 c 1.428,0.854 2.856,1.646 4.284,2.365 12.772,6.468 25.415,7.649 37.678,3.492 0.837,-0.282 1.645,-0.591 2.437,-0.909 -1.255,-1.955 -2.319,-3.875 -3.211,-5.685 -2.601,-0.292 -5.158,-0.637 -7.332,-1.045 -2.747,0.062 -5.503,0.098 -8.259,0.098 -6.34,0 -12.671,-0.172 -18.966,-0.518 -1.765,-0.091 -3.53,-0.2 -5.285,-0.327 -1.01,-0.064 -2.01,-0.137 -3.021,-0.218 -0.399,0.39 -0.745,0.745 -1.036,1.054 0.9,0.592 1.81,1.156 2.711,1.693 m -72.871,22.368 v 0.009 c -0.692,1.364 -1.32,2.774 -1.884,4.229 -0.309,0.819 -0.591,1.629 -0.855,2.438 -0.627,1.966 -1.091,3.894 -1.437,5.722 -1.164,6.213 -0.919,11.399 -0.673,13.866 0.682,-0.192 1.364,-0.393 2.028,-0.602 1.829,-0.564 3.593,-1.191 5.294,-1.865 9.797,-3.921 17.402,-9.671 22.714,-17.176 -0.336,-0.009 -0.691,-0.072 -1.046,-0.199 l -0.272,-0.11 c -0.337,-0.136 -0.647,-0.309 -0.929,-0.537 l -0.163,-0.089 -0.109,-0.129 -0.228,-0.163 -0.127,-0.228 c -0.219,-0.236 -0.409,-0.555 -0.574,-0.918 -0.054,-0.119 -0.09,-0.246 -0.127,-0.364 -0.072,-0.21 -0.145,-0.473 -0.182,-0.745 -0.027,-0.101 -0.037,-0.229 -0.037,-0.338 l -0.017,-0.2 c 0,-0.309 0.046,-0.619 0.118,-0.918 v -0.019 c 0.373,-2.22 2.483,-12.672 9.86,-22.577 -4.211,1.6 -8.95,2.792 -14.281,3.437 -0.81,0.455 -1.601,0.929 -2.365,1.429 -6.431,4.121 -11.334,9.479 -14.708,16.047 m -28.946,17.328 -0.191,-0.027 c -0.353,-0.055 -0.69,-0.145 -1.027,-0.301 l -0.183,-0.054 -0.136,-0.091 -0.255,-0.109 -0.181,-0.19 c -0.264,-0.183 -0.519,-0.438 -0.774,-0.765 -0.081,-0.1 -0.145,-0.2 -0.209,-0.31 -0.118,-0.19 -0.245,-0.436 -0.354,-0.682 -0.056,-0.1 -0.082,-0.209 -0.109,-0.309 l -0.065,-0.201 c -0.072,-0.299 -0.118,-0.609 -0.108,-0.918 l -0.01,-0.018 c -0.108,-1.51 -0.345,-6.768 0.946,-13.481 -5.166,1.883 -11.115,3.22 -17.946,3.802 -2.358,3.929 -5.34,7.824 -9.133,11.49 -0.656,1.691 -1.21,3.43 -1.665,5.221 6.649,4.822 13.025,10.327 19.111,16.504 1.674,-1.592 3.23,-3.266 4.649,-5.012 1.51,-4.832 3.92,-9.8 7.64,-14.549 m 24.642,13.93 c -0.09,0.035 -0.172,0.063 -0.264,0.082 -0.363,0.108 -0.781,0.164 -1.21,0.145 l -0.298,-0.018 c -0.356,-0.037 -0.702,-0.118 -1.039,-0.255 l -0.181,-0.036 -0.145,-0.091 -0.256,-0.092 -0.199,-0.181 c -0.273,-0.164 -0.537,-0.419 -0.802,-0.728 -0.089,-0.091 -0.163,-0.191 -0.236,-0.301 -0.127,-0.181 -0.272,-0.418 -0.382,-0.654 -0.063,-0.101 -0.1,-0.2 -0.136,-0.31 l -0.073,-0.19 c -0.082,-0.301 -0.145,-0.602 -0.155,-0.92 l -0.009,-0.009 c -0.218,-1.764 -0.873,-8.688 0.902,-17.213 -3.449,1.874 -7.324,3.531 -11.68,4.885 -0.511,0.474 -1.002,0.946 -1.474,1.438 -5.377,5.486 -8.969,11.955 -10.743,19.342 -0.181,0.764 -0.347,1.529 -0.491,2.311 -0.409,2.211 -0.628,4.357 -0.71,6.387 3.165,3.666 6.259,7.523 9.261,11.589 10.124,-6.576 16.927,-15.019 20.32,-25.181 m 231.059,13.601 c -0.092,-2.039 -0.31,-4.175 -0.719,-6.396 -0.146,-0.782 -0.309,-1.565 -0.491,-2.329 -1.784,-7.378 -5.368,-13.829 -10.725,-19.306 -0.482,-0.491 -0.974,-0.982 -1.491,-1.456 -4.358,-1.354 -8.234,-3.001 -11.671,-4.876 1.772,8.524 1.118,15.44 0.899,17.204 l -0.008,0.009 c -0.018,0.318 -0.073,0.619 -0.155,0.92 l -0.082,0.19 c -0.027,0.11 -0.072,0.209 -0.127,0.31 -0.109,0.236 -0.263,0.473 -0.382,0.654 -0.072,0.11 -0.145,0.21 -0.246,0.301 -0.255,0.309 -0.518,0.564 -0.799,0.728 l -0.192,0.181 -0.255,0.092 -0.145,0.091 -0.192,0.036 c -0.327,0.137 -0.672,0.218 -1.027,0.255 l -0.301,0.018 c -0.435,0.019 -0.845,-0.037 -1.219,-0.145 -0.09,-0.019 -0.163,-0.047 -0.254,-0.082 3.384,10.172 10.197,18.605 20.322,25.191 2.983,-4.058 6.067,-7.915 9.26,-11.581 z m -1.347,-31.506 v 0.018 c 0,0.309 -0.036,0.619 -0.118,0.918 l -0.063,0.201 c -0.019,0.1 -0.055,0.209 -0.1,0.309 -0.11,0.246 -0.237,0.492 -0.355,0.682 -0.064,0.11 -0.128,0.21 -0.219,0.31 -0.254,0.327 -0.509,0.582 -0.773,0.765 l -0.183,0.19 -0.245,0.109 -0.145,0.091 -0.183,0.054 c -0.326,0.156 -0.672,0.246 -1.027,0.301 l -0.182,0.027 c 3.73,4.759 6.141,9.717 7.65,14.557 v 0.01 c 1.42,1.738 2.966,3.412 4.639,5.003 6.068,-6.186 12.444,-11.691 19.112,-16.513 -0.455,-1.783 -1.01,-3.52 -1.664,-5.213 -3.803,-3.666 -6.795,-7.569 -9.142,-11.507 -6.832,-0.573 -12.78,-1.91 -17.948,-3.802 1.292,6.722 1.055,11.98 0.946,13.49 m -60.855,259.999 -0.018,-0.009 c -0.337,-0.018 -0.663,-0.1 -0.983,-0.228 l -0.191,-0.082 c -0.118,-0.027 -0.226,-0.081 -0.336,-0.144 -0.245,-0.138 -0.491,-0.301 -0.682,-0.448 -0.109,-0.081 -0.209,-0.163 -0.309,-0.263 -0.318,-0.29 -0.565,-0.6 -0.728,-0.9 l -0.191,-0.218 -0.091,-0.283 -0.072,-0.154 -0.047,-0.191 c -0.118,-0.372 -0.199,-0.755 -0.228,-1.137 v -0.318 c 0.011,-0.456 0.074,-0.901 0.21,-1.291 0.018,-0.102 0.074,-0.201 0.11,-0.31 1.273,-3.966 2.728,-7.568 4.33,-10.861 -11.972,1.355 -22.523,6.94 -31.501,16.655 9.015,3.621 17.511,7.65 25.069,11.734 2.02,-0.491 4.003,-1.109 5.922,-1.883 4.611,-4.039 9.378,-6.949 14.09,-9.033 0.101,-0.09 0.191,-0.181 0.291,-0.272 -7.377,0.71 -13.035,-0.091 -14.645,-0.364 m 31.356,-19.249 -0.009,-0.008 c -0.337,0.046 -0.682,0.073 -1.019,0.046 l -0.218,-0.028 c -0.118,-0.01 -0.236,-0.037 -0.364,-0.064 -0.274,-0.064 -0.555,-0.163 -0.783,-0.254 -0.136,-0.055 -0.255,-0.1 -0.373,-0.164 -0.39,-0.219 -0.71,-0.445 -0.955,-0.692 l -0.236,-0.181 -0.164,-0.246 -0.127,-0.118 -0.082,-0.191 c -0.228,-0.328 -0.401,-0.673 -0.519,-1.037 l -0.091,-0.309 c -0.119,-0.455 -0.164,-0.91 -0.136,-1.328 0.009,-0.109 0.017,-0.218 0.027,-0.328 0.236,-5.294 0.91,-10.106 1.929,-14.5 -12.308,6.34 -21.204,17.583 -26.48,33.539 3.747,0.537 13.299,1.346 23.751,-2.129 9.096,-3.039 16.492,-8.496 22.15,-16.291 -7.869,3.274 -14.519,4.102 -16.301,4.283 m 28.972,-34.546 c -3.502,1.672 -6.204,2.546 -7.223,2.845 l -0.027,-0.007 c -0.291,0.109 -0.601,0.19 -0.928,0.226 l -0.209,0.01 c -0.118,0.008 -0.236,0.017 -0.346,0.008 -0.282,-0.018 -0.564,-0.045 -0.792,-0.099 -0.117,-0.028 -0.255,-0.046 -0.382,-0.092 -0.39,-0.118 -0.746,-0.282 -1.018,-0.481 l -0.255,-0.1 -0.191,-0.211 -0.146,-0.099 -0.118,-0.155 c -0.264,-0.263 -0.482,-0.563 -0.663,-0.873 l -0.147,-0.282 c -0.199,-0.399 -0.308,-0.817 -0.363,-1.21 -0.019,-0.109 -0.019,-0.218 -0.036,-0.318 -0.401,-2.747 -0.655,-5.385 -0.774,-7.922 -9.087,9.305 -14.117,21.994 -14.981,37.84 3.784,-0.473 13.335,-2.193 22.613,-8.367 2.574,-1.711 4.904,-3.622 7.014,-5.713 -0.847,-5.377 -1.155,-10.371 -1.028,-15 m 11.835,-14.291 c 6.048,-5.95 9.987,-13.063 11.834,-21.268 -0.219,-0.9 -0.428,-1.791 -0.61,-2.674 -2.738,2.821 -4.994,4.584 -5.849,5.221 l -0.009,0.01 c -0.245,0.217 -0.519,0.4 -0.81,0.535 l -0.19,0.084 c -0.11,0.054 -0.21,0.098 -0.328,0.127 -0.255,0.09 -0.536,0.144 -0.764,0.19 -0.127,0.019 -0.255,0.036 -0.391,0.046 -0.428,0.018 -0.8,-0.01 -1.12,-0.092 l -0.281,-0.027 -0.255,-0.117 -0.163,-0.046 -0.165,-0.101 c -0.335,-0.172 -0.646,-0.353 -0.937,-0.592 l -0.226,-0.209 c -0.319,-0.317 -0.583,-0.663 -0.756,-1.017 -0.063,-0.082 -0.1,-0.191 -0.145,-0.274 -2.484,-4.539 -4.349,-8.896 -5.695,-13.062 l -0.036,0.036 c -11.033,11.398 -15.354,26.599 -12.808,45.173 3.466,-1.128 12.108,-4.475 19.704,-11.943 m 19.774,-6.423 c -0.454,-0.018 -0.863,-0.109 -1.2,-0.228 l -0.3,-0.054 -0.255,-0.163 -0.173,-0.073 -0.173,-0.137 c -0.345,-0.209 -0.654,-0.463 -0.946,-0.745 l -0.21,-0.263 c -0.308,-0.373 -0.545,-0.775 -0.708,-1.184 -0.064,-0.109 -0.082,-0.218 -0.128,-0.327 -0.419,-1.028 -0.801,-2.046 -1.174,-3.057 -4.756,11.781 -13.261,19.267 -20.585,23.796 -0.436,5.658 -0.135,11.671 0.918,18.039 3.748,-1.347 13.064,-5.267 21.096,-13.644 0.027,-0.029 0.045,-0.056 0.072,-0.082 -0.217,-8.461 1.384,-15.729 3.931,-21.868 -0.056,-0.01 -0.109,0 -0.165,-0.01 m 1.384,-57.943 c -7.778,-2.729 -14.7,-4.649 -21.559,-6.431 -0.1,0.218 -0.2,0.426 -0.301,0.645 -6.394,14.509 -5.166,30.265 3.684,46.801 2.848,-2.265 9.779,-8.414 14.318,-18.038 3.448,-7.359 4.731,-15.037 3.858,-22.977 m 21.367,8.732 c -5.85,-2.71 -11.143,-4.931 -16.074,-6.804 0.819,14.309 -4.822,25.496 -10.524,33.011 0.783,5.467 2.328,11.116 4.639,16.929 3.048,-1.893 10.051,-6.815 15.864,-15.001 -0.727,-11.38 2.156,-20.785 6.095,-28.135 m -282.652,99.005 c -0.865,-15.846 -5.905,-28.535 -14.982,-37.84 -0.128,2.537 -0.373,5.175 -0.774,7.922 -0.018,0.1 -0.028,0.209 -0.045,0.318 -0.045,0.393 -0.163,0.811 -0.355,1.21 l -0.154,0.282 c -0.174,0.31 -0.4,0.61 -0.665,0.873 l -0.118,0.155 -0.146,0.099 -0.181,0.211 -0.255,0.1 c -0.274,0.199 -0.628,0.363 -1.019,0.481 -0.136,0.046 -0.263,0.064 -0.391,0.092 -0.218,0.054 -0.509,0.081 -0.783,0.099 -0.108,0.009 -0.236,0 -0.344,-0.008 l -0.219,-0.01 c -0.319,-0.036 -0.637,-0.117 -0.929,-0.226 l -0.026,0.007 c -1.01,-0.299 -3.711,-1.173 -7.223,-2.845 0.137,4.629 -0.174,9.623 -1.019,15 2.102,2.091 4.43,4.002 7.005,5.713 9.287,6.174 18.83,7.894 22.623,8.367 m 29.963,19.603 c -5.267,-15.956 -14.164,-27.199 -26.48,-33.539 1.02,4.394 1.701,9.206 1.938,14.5 0,0.11 0.017,0.219 0.017,0.328 0.028,0.418 -0.017,0.873 -0.127,1.328 l -0.091,0.309 c -0.127,0.364 -0.299,0.709 -0.518,1.037 l -0.081,0.191 -0.128,0.118 -0.164,0.246 -0.237,0.181 c -0.246,0.247 -0.572,0.473 -0.955,0.692 -0.128,0.064 -0.246,0.109 -0.373,0.164 -0.227,0.091 -0.518,0.19 -0.791,0.254 -0.118,0.027 -0.236,0.054 -0.354,0.064 l -0.219,0.028 c -0.346,0.027 -0.682,0 -1.019,-0.046 l -0.008,0.008 c -1.793,-0.181 -8.443,-1.009 -16.311,-4.283 5.658,7.795 13.054,13.252 22.151,16.291 10.46,3.475 20.011,2.666 23.75,2.129 m 5.403,2.192 -0.036,0.191 -0.082,0.154 -0.092,0.283 -0.181,0.218 c -0.174,0.3 -0.419,0.61 -0.728,0.9 -0.109,0.1 -0.209,0.182 -0.319,0.263 -0.181,0.147 -0.426,0.31 -0.681,0.448 -0.11,0.063 -0.219,0.117 -0.337,0.144 l -0.192,0.082 c -0.317,0.128 -0.645,0.21 -0.973,0.228 l -0.027,0.009 c -1.601,0.273 -7.258,1.074 -14.645,0.364 0.1,0.091 0.2,0.182 0.291,0.272 4.722,2.084 9.487,4.994 14.091,9.033 1.928,0.774 3.902,1.392 5.93,1.883 7.56,-4.084 16.056,-8.113 25.071,-11.734 -8.979,-9.715 -19.532,-15.3 -31.501,-16.655 1.6,3.293 3.055,6.895 4.32,10.861 0.037,0.109 0.091,0.208 0.118,0.31 0.127,0.39 0.2,0.835 0.209,1.291 v 0.318 c -0.036,0.382 -0.109,0.765 -0.236,1.137 m -74.636,-85.37 c -0.045,0.083 -0.091,0.192 -0.145,0.274 -0.182,0.354 -0.438,0.7 -0.764,1.017 l -0.219,0.209 c -0.301,0.239 -0.609,0.42 -0.946,0.592 l -0.154,0.101 -0.174,0.046 -0.245,0.117 -0.283,0.027 c -0.327,0.082 -0.69,0.11 -1.118,0.092 -0.136,-0.01 -0.263,-0.027 -0.39,-0.046 -0.228,-0.046 -0.51,-0.1 -0.766,-0.19 -0.127,-0.029 -0.227,-0.073 -0.335,-0.127 l -0.183,-0.084 c -0.291,-0.135 -0.563,-0.318 -0.809,-0.535 l -0.019,-0.01 c -0.855,-0.637 -3.101,-2.4 -5.84,-5.221 -0.19,0.883 -0.39,1.774 -0.618,2.674 1.847,8.195 5.785,15.318 11.844,21.268 7.595,7.468 16.228,10.815 19.693,11.943 2.556,-18.574 -1.764,-33.775 -12.798,-45.173 -0.019,-0.009 -0.028,-0.017 -0.037,-0.036 -1.355,4.166 -3.22,8.523 -5.694,13.062 M -409.22,280.92 c 4.531,9.624 11.462,15.773 14.318,18.038 8.851,-16.536 10.079,-32.292 3.674,-46.801 -0.09,-0.219 -0.199,-0.427 -0.29,-0.645 -6.858,1.782 -13.79,3.702 -21.567,6.431 -0.864,7.94 0.418,15.618 3.865,22.977 m -2.637,34.976 c 2.538,6.139 4.138,13.407 3.929,21.868 0.018,0.026 0.046,0.053 0.074,0.082 8.022,8.377 17.345,12.297 21.093,13.644 1.056,-6.368 1.356,-12.381 0.909,-18.039 -7.313,-4.529 -15.827,-12.015 -20.575,-23.796 -0.374,1.011 -0.756,2.029 -1.182,3.057 -0.046,0.109 -0.065,0.218 -0.127,0.327 -0.156,0.409 -0.402,0.811 -0.71,1.184 l -0.21,0.263 c -0.282,0.282 -0.591,0.536 -0.947,0.745 l -0.163,0.137 -0.172,0.073 -0.264,0.163 -0.3,0.054 c -0.337,0.119 -0.737,0.21 -1.201,0.228 -0.054,0.01 -0.101,0 -0.154,0.01 m -6.514,-56.025 c -4.939,1.873 -10.233,4.094 -16.073,6.804 3.93,7.35 6.822,16.755 6.094,28.135 5.804,8.186 12.818,13.108 15.856,15.001 2.319,-5.813 3.856,-11.462 4.648,-16.929 -5.704,-7.515 -11.342,-18.702 -10.525,-33.011 m 33.03,-9.943 -0.737,0.191 c -0.155,0.037 -0.31,0.073 -0.464,0.118 3.82,8.689 6.048,19.886 3.021,33.248 8.204,7.578 16.053,19.376 17.036,37.085 6.595,5.569 12.762,13.427 16.584,24.497 9.222,3.776 18.956,10.671 26.416,23.06 12.061,0.564 26.661,5.166 39.686,20.049 7.806,-2.93 15.919,-5.514 24.07,-7.532 3.665,-2.448 7.404,-3.675 11.225,-3.675 4.302,0 8.395,2.119 12.234,5.631 5.686,1.636 11.307,3.529 16.784,5.576 13.035,-14.883 27.626,-19.485 39.687,-20.049 7.468,-12.389 17.192,-19.284 26.425,-23.06 3.82,-11.07 9.978,-18.928 16.583,-24.497 0.982,-17.709 8.832,-29.507 17.037,-37.085 -3.029,-13.362 -0.809,-24.559 3.011,-33.248 -0.155,-0.045 -0.31,-0.081 -0.464,-0.118 l -0.728,-0.191 c -1.218,-0.309 -2.1,-1.356 -2.201,-2.601 -0.036,-0.364 0.009,-0.719 0.11,-1.056 -0.029,-0.208 -0.046,-0.409 -0.046,-0.636 0,-10.788 -1.22,-21.514 -3.612,-31.964 -0.018,-0.056 -0.045,-0.109 -0.063,-0.165 -2.429,-9.25 -6.831,-22.494 -11.19,-31.218 -0.472,-0.956 -0.39,-2.093 0.21,-2.975 0.418,-0.6 0.829,-1.2 1.255,-1.8 -13.962,-9.169 -20.366,-20.624 -23.049,-30.959 -15.246,-5.341 -24.352,-14.03 -29.754,-22.926 -8.378,-0.327 -15.437,-1.991 -21.386,-4.484 -6.613,18.994 -17.092,55.93 -23.097,112.165 0,0 -5.53,49.756 -4.147,61.427 h -0.036 c 0.008,1.719 -0.065,9.005 -2.092,9.005 h -1.119 c 18.065,6.005 18.584,22.478 18.592,22.679 l 0.046,2.537 h -30.09 c 0.229,0.087 16.505,6.451 -0.01,37.734 -16.506,-31.283 -0.239,-37.647 -0.011,-37.734 h -30.09 l 0.046,-2.537 c 0,-0.201 0.528,-16.674 18.593,-22.679 h -1.11 c -2.038,0 -2.119,-9.005 -2.119,-9.005 0.009,-0.118 0.028,-0.236 0.028,-0.355 v -0.009 h 0.008 c 1.228,-12.289 -4.203,-61.063 -4.203,-61.063 -6.175,-57.881 -17.091,-95.319 -23.65,-113.785 -6.622,3.374 -14.799,5.713 -24.878,6.104 -5.413,8.906 -14.518,17.585 -29.755,22.926 -2.683,10.335 -9.087,21.79 -23.041,30.959 0.419,0.6 0.828,1.2 1.247,1.8 0.6,0.882 0.682,2.019 0.199,2.975 -4.357,8.724 -8.759,21.968 -11.188,31.218 -0.01,0.056 -0.036,0.109 -0.055,0.165 -2.401,10.45 -3.62,21.176 -3.62,31.964 0,0.227 -0.018,0.428 -0.045,0.636 0.1,0.337 0.145,0.692 0.118,1.056 -0.1,1.245 -0.992,2.292 -2.201,2.601 M -397.807,115.75 c 0.628,-0.054 1.255,-0.117 1.866,-0.189 0.372,-0.038 0.745,-0.083 1.109,-0.128 3.698,-0.461 7.182,-1.188 10.456,-2.162 2.148,-0.64 4.209,-1.384 6.175,-2.242 0.145,-0.471 0.301,-0.954 0.464,-1.436 1.501,-4.421 3.748,-9.079 7.077,-13.499 4.421,-5.867 10.762,-11.317 19.821,-15.2 0.045,-0.07 0.075,-0.143 0.117,-0.212 0.075,-0.124 0.144,-0.248 0.206,-0.373 0.04,-0.081 0.078,-0.163 0.113,-0.246 0.075,-0.176 0.14,-0.354 0.192,-0.534 0.015,-0.047 0.026,-0.094 0.039,-0.141 0.05,-0.193 0.084,-0.386 0.109,-0.578 0.006,-0.054 0.013,-0.106 0.017,-0.159 0.023,-0.239 0.019,-0.478 0.006,-0.715 -4.108,-1.279 -7.476,-2.409 -10.092,-3.327 -0.012,-0.008 -0.02,-0.016 -0.031,-0.025 0,0 -0.009,0.007 -0.012,0.011 l -0.009,-0.003 -0.155,0.155 c -0.015,0.016 -0.03,0.027 -0.045,0.043 -5.051,7.66 -13.299,16.074 -26.366,20.476 -0.039,0.013 -0.075,0.028 -0.115,0.042 -0.078,0.025 -0.161,0.046 -0.239,0.072 -0.802,0.265 -1.619,0.517 -2.459,0.75 v 0.002 c -0.798,0.217 -1.606,0.426 -2.431,0.616 -2.237,4.076 -3.62,8.078 -4.485,11.452 v 0.009 c -0.845,3.275 -1.191,5.959 -1.328,7.541 m 53.363,-20.439 v -0.028 c 0.209,-1.491 1.073,-6.704 3.756,-13.016 -1.009,0.309 -2.183,0.774 -3.547,1.41 -1.382,0.455 -2.729,0.956 -4.03,1.501 -2.382,0.982 -4.621,2.101 -6.704,3.366 -5.494,3.31 -9.942,7.559 -13.336,12.744 -1.246,1.9 -2.346,3.939 -3.31,6.095 -0.028,0.071 -0.064,0.136 -0.091,0.208 -0.582,1.328 -1.082,2.647 -1.511,3.939 -0.346,1.028 -0.645,2.037 -0.899,3.03 -1.701,6.512 -1.72,12.061 -1.602,14.663 0.401,-0.092 0.81,-0.182 1.201,-0.284 1.192,-0.29 2.347,-0.599 3.484,-0.935 0.946,-0.274 1.864,-0.565 2.774,-0.883 4.967,-1.691 9.415,-3.866 13.335,-6.521 0.419,-1.184 0.893,-2.374 1.438,-3.576 2.611,-5.858 6.668,-11.797 12.908,-16.882 -0.347,-0.009 -0.71,-0.074 -1.083,-0.182 l -0.281,-0.091 c -0.329,-0.137 -0.637,-0.302 -0.929,-0.518 l -0.163,-0.083 -0.118,-0.127 -0.228,-0.155 -0.145,-0.227 c -0.219,-0.228 -0.418,-0.537 -0.592,-0.901 -0.054,-0.119 -0.1,-0.227 -0.146,-0.355 -0.073,-0.209 -0.144,-0.472 -0.2,-0.736 -0.027,-0.11 -0.036,-0.218 -0.045,-0.328 l -0.009,-0.2 c -0.018,-0.318 0.009,-0.628 0.073,-0.928 m 5.04,-0.155 c 0.972,-0.009 1.937,-0.045 2.883,-0.091 1.365,-0.063 2.702,-0.172 4.01,-0.308 0.402,-0.046 0.792,-0.092 1.184,-0.137 7.322,-0.919 13.836,-2.984 19.502,-6.185 h 0.01 c 0.455,-0.255 0.9,-0.519 1.345,-0.792 -6.468,-1.146 -12.852,-2.475 -19.138,-3.994 -1.91,-0.455 -3.802,-0.927 -5.685,-1.427 -0.127,0.255 -0.245,0.508 -0.354,0.763 v 0.009 c -2.384,5.268 -3.375,9.87 -3.757,12.162 m 56.069,-1.482 c -0.054,-0.32 -0.045,-0.683 0.009,-1.082 0.019,-0.128 0.046,-0.255 0.082,-0.382 0.056,-0.21 0.137,-0.474 0.246,-0.719 0.009,-0.036 0.027,-0.063 0.036,-0.092 -6.449,-0.609 -12.844,-1.409 -19.166,-2.373 -2.574,1.663 -4.938,3.62 -7.095,5.858 -1.1,1.128 -2.137,2.337 -3.13,3.611 -0.062,0.09 -0.135,0.173 -0.2,0.264 v 0.01 c -6.121,8.049 -8.304,16.545 -8.996,19.957 0.573,0.008 1.138,0.018 1.701,0.008 1.91,-0.008 3.766,-0.082 5.577,-0.236 7.659,-0.618 14.481,-2.493 20.439,-5.612 4.094,-2.139 7.786,-4.867 11.053,-8.178 1.064,-1.064 2.083,-2.202 3.055,-3.401 0.656,-0.811 1.274,-1.629 1.847,-2.439 -1.128,-0.682 -2.265,-1.41 -3.411,-2.174 -0.081,-0.055 -0.182,-0.1 -0.264,-0.164 -0.318,-0.209 -0.628,-0.482 -0.9,-0.818 l -0.183,-0.246 c -0.209,-0.282 -0.363,-0.6 -0.491,-0.946 l -0.091,-0.155 -0.027,-0.173 -0.1,-0.254 z m 124.558,2.765 c 0,0.11 -0.01,0.218 -0.037,0.328 -0.054,0.264 -0.127,0.527 -0.209,0.736 -0.037,0.128 -0.081,0.236 -0.137,0.355 -0.181,0.364 -0.382,0.673 -0.6,0.901 l -0.136,0.227 -0.228,0.155 -0.118,0.127 -0.164,0.083 c -0.29,0.216 -0.61,0.381 -0.928,0.518 l -0.291,0.091 c -0.363,0.108 -0.728,0.173 -1.073,0.182 6.23,5.085 10.289,11.015 12.898,16.874 0.547,1.2 1.019,2.391 1.446,3.584 3.913,2.655 8.361,4.83 13.336,6.531 0.901,0.308 1.829,0.599 2.775,0.873 1.138,0.336 2.292,0.645 3.484,0.935 0.391,0.102 0.8,0.192 1.2,0.284 0.119,-2.602 0.092,-8.16 -1.619,-14.673 -0.255,-0.991 -0.546,-1.992 -0.891,-3.02 -0.427,-1.292 -0.928,-2.62 -1.51,-3.948 -0.036,-0.063 -0.065,-0.136 -0.091,-0.199 -0.965,-2.156 -2.065,-4.195 -3.311,-6.095 -3.393,-5.177 -7.832,-9.425 -13.318,-12.735 -2.092,-1.265 -4.32,-2.393 -6.704,-3.375 h -0.009 c -1.301,-0.545 -2.637,-1.046 -4.03,-1.501 -1.364,-0.636 -2.537,-1.101 -3.547,-1.41 2.675,6.312 3.547,11.525 3.757,13.016 v 0.028 c 0.064,0.3 0.082,0.61 0.073,0.928 z m 66.267,-4.711 c -0.537,-1.883 -1.41,-4.503 -2.784,-7.451 -1.564,-3.375 -3.766,-7.195 -6.849,-10.851 -3.294,-3.903 -7.069,-7.05 -11.326,-9.461 -6.294,3.029 -12.835,5.831 -19.565,8.396 h -0.01 c -1.464,0.574 -2.946,1.128 -4.43,1.664 0.673,0.928 1.401,1.857 2.183,2.784 0.219,0.264 0.446,0.519 0.674,0.783 5.266,5.958 11.671,10.242 19.138,12.834 0.464,0.165 0.938,0.319 1.411,0.465 1.9,0.6 3.874,1.091 5.912,1.473 1.473,0.273 2.975,0.5 4.52,0.656 3.649,0.399 7.496,0.472 11.526,0.236 -0.1,-0.428 -0.237,-0.946 -0.4,-1.528 M 35.358,34.93 27.262,37.649 c -32.402,10.871 -88.026,22.35 -134.417,24.506 10.861,7.696 16.128,18.648 18.474,25.333 15.783,8.769 22.914,21.514 25.997,32.801 0.219,-0.054 0.437,-0.072 0.647,-0.072 1.064,0 2.092,0.582 2.6,1.583 5.85,11.28 13.555,28.31 17.584,40.921 0.255,0.792 0.155,1.646 -0.262,2.365 7.476,11.789 8.677,23.261 7.394,32.83 0.656,0.463 1.101,1.182 1.209,2.01 0.92,7.304 1.501,14.727 1.72,22.031 0.082,2.383 0.118,4.822 0.118,7.26 0,0.563 0,1.127 -0.009,1.701 0.064,0.236 0.1,0.49 0.091,0.744 -0.301,15.93 -2.219,31.812 -5.703,47.229 -0.128,0.537 -0.409,1.009 -0.782,1.392 -0.546,18.257 -11.253,30.647 -18.194,36.813 -1.009,24.17 -18.483,37.205 -26.169,41.78 -5.549,16.61 -17.465,25.206 -27.326,29.608 -6.513,8.688 -14.363,14.028 -22.058,17.275 -8.405,12.135 -18.322,18.447 -27.827,21.468 -0.036,0.027 -0.073,0.063 -0.109,0.089 -10.761,7.979 -36.931,15.765 -54.041,17.803 -8.869,4.256 -25.371,5.513 -35.441,5.513 -7.258,0 -22.604,-0.574 -32.955,-5.003 -15.801,-0.065 -48.866,-9.088 -61.328,-18.313 -0.037,-0.026 -0.064,-0.062 -0.101,-0.089 -9.515,-3.021 -19.429,-9.333 -27.834,-21.468 -7.686,-3.247 -15.546,-8.587 -22.06,-17.275 -9.86,-4.402 -21.767,-12.998 -27.325,-29.608 -7.677,-4.575 -25.161,-17.61 -26.161,-41.78 -6.95,-6.166 -17.647,-18.556 -18.202,-36.813 -0.372,-0.383 -0.655,-0.855 -0.773,-1.392 -3.493,-15.409 -5.413,-31.299 -5.712,-47.229 -0.01,-0.254 0.036,-0.508 0.09,-0.744 v -1.701 c 0,-2.447 0.038,-4.886 0.11,-7.251 0.218,-7.313 0.801,-14.727 1.727,-22.04 0.101,-0.828 0.556,-1.547 1.202,-2.01 -1.283,-9.569 -0.082,-21.041 7.404,-32.83 -0.418,-0.719 -0.519,-1.573 -0.273,-2.365 4.039,-12.611 11.735,-29.641 17.583,-40.921 0.519,-1.001 1.537,-1.583 2.612,-1.583 0.208,0 0.426,0.027 0.645,0.082 3.083,-11.288 10.215,-24.032 25.988,-32.811 2.375,-6.749 7.714,-17.828 18.775,-25.533 -45.6,-2.575 -99.113,-13.726 -130.65,-24.306 l -8.097,-2.719 36.868,-12.927 -11.07,-31.582 5.795,2.092 c 29.38,10.606 86.952,21.968 125.811,21.968 29.908,0 59.427,-3.675 85.352,-10.606 l 10.56,-2.83 -23.696,23.687 c 16.956,5.031 35.677,7.832 55.352,7.832 19.667,0 38.387,-2.801 55.342,-7.832 l -23.696,-23.687 10.562,2.83 c 25.915,6.931 55.432,10.606 85.351,10.606 38.859,0 96.422,-11.362 125.812,-21.968 L 9.561,-9.579 -1.51,22.003 Z" /></g><g
           transform="translate(461.5713,301.8496)"
           id="g30"><path
             id="path32"
             style="fill:#ffffff;fill-opacity:1;fill-rule:nonzero;stroke:none"
             d="M 0,0 C 0.556,0.264 1.11,0.518 1.665,0.764 1.893,0.873 2.111,0.982 2.338,1.082 1.556,0.728 0.773,0.363 0,0" /></g><g
           transform="translate(501.3408,295.0537)"
           id="g34"><path
             id="path36"
             style="fill:#ffffff;fill-opacity:1;fill-rule:nonzero;stroke:none"
             d="m 0,0 6.713,-17.064 3.866,1.528 -6.703,17.064 z" /></g><g
           transform="translate(526.4736,299.9932)"
           id="g38"><path
             id="path40"
             style="fill:#ffffff;fill-opacity:1;fill-rule:nonzero;stroke:none"
             d="m 0,0 -0.955,3.175 -2.628,-0.791 -1.02,-0.31 1.539,-5.103 c 0.108,-0.364 0.217,-0.718 0.327,-1.064 0.691,-2.238 1.391,-4.248 2.219,-6.185 l -0.073,-0.028 c -1.409,1.738 -3.083,3.62 -4.702,5.149 l -5.559,5.348 -4.638,-1.401 5.285,-17.556 3.646,1.101 -1.582,5.258 c -0.864,2.865 -1.672,5.357 -2.501,7.632 l 0.11,0.036 c 1.446,-1.81 3.292,-3.702 4.911,-5.284 l 5.813,-5.614 4.139,1.246 -2.356,7.824 z" /></g><g
           transform="translate(540.4912,298.7197)"
           id="g42"><path
             id="path44"
             style="fill:#ffffff;fill-opacity:1;fill-rule:nonzero;stroke:none"
             d="m 0,0 c -0.163,0.027 -0.326,0.055 -0.491,0.082 -0.335,0.046 -0.655,0.1 -0.946,0.155 -1.846,0.318 -2.719,0.692 -2.919,1.655 -0.082,0.364 -0.019,0.755 0.209,1.11 0.118,0.191 0.282,0.364 0.5,0.537 0.364,0.273 0.864,0.5 1.519,0.636 1.592,0.346 2.884,0.174 3.702,0.01 C 1.656,4.166 1.738,4.157 1.811,4.139 L 1.984,7.596 C 1.529,7.696 1.02,7.769 0.429,7.787 H 0.419 C -0.472,7.832 -1.527,7.76 -2.783,7.486 -4.12,7.205 -5.239,6.714 -6.121,6.086 -6.176,6.049 -6.222,6.013 -6.275,5.977 -8.077,4.63 -8.841,2.684 -8.404,0.654 c 0.273,-1.291 0.964,-2.218 1.983,-2.891 h 0.009 c 1.055,-0.709 2.474,-1.129 4.13,-1.357 C 0,-3.875 1.002,-4.356 1.229,-5.448 1.483,-6.622 0.665,-7.604 -1.199,-8.005 c -0.865,-0.19 -1.757,-0.236 -2.584,-0.182 -0.81,0.037 -1.556,0.165 -2.147,0.328 l -0.1,-3.53 c 1.128,-0.336 3.265,-0.464 5.322,-0.017 1.782,0.382 3.137,1.027 4.119,1.837 1.42,1.155 2.047,2.665 2.002,4.23 0,0.355 -0.046,0.709 -0.127,1.073 C 4.776,-1.874 3.103,-0.546 0,0" /></g><g
           transform="translate(561.2139,306.4424)"
           id="g46"><path
             id="path48"
             style="fill:#ffffff;fill-opacity:1;fill-rule:nonzero;stroke:none"
             d="m 0,0 -0.52,3.439 -5.494,-0.828 -5.166,-0.783 -3.301,-0.5 0.327,-2.137 0.2,-1.3 1.665,0.254 h 0.009 l 2.838,0.428 0.381,0.054 0.183,-1.228 0.009,-0.018 0.199,-1.328 1.238,-8.187 0.591,-3.921 4.112,0.619 -0.182,1.219 -2.037,13.472 0.582,0.091 z" /></g><g
           transform="translate(570.0283,302.04)"
           id="g50"><path
             id="path52"
             style="fill:#ffffff;fill-opacity:1;fill-rule:nonzero;stroke:none"
             d="M 0,0 -0.9,8.697 -5.039,8.269 -3.147,-9.97 0.991,-9.542 0.127,-1.173 Z" /></g><g
           transform="translate(587.6484,309.6904)"
           id="g54"><path
             id="path56"
             style="fill:#ffffff;fill-opacity:1;fill-rule:nonzero;stroke:none"
             d="m 0,0 -0.119,2.001 -0.019,0.291 -0.827,-0.046 -3.967,-0.218 -9.304,-0.519 0.199,-3.474 4.94,0.273 0.218,-3.839 0.109,-2.092 0.273,-4.839 0.082,-1.492 0.145,-2.566 3.54,0.192 0.618,0.036 -0.155,2.784 -0.463,8.314 -0.083,1.428 -0.127,2.311 3.183,0.172 1.82,0.1 L 0,-0.01 Z" /></g><g
           transform="translate(602.9482,310.0996)"
           id="g58"><path
             id="path60"
             style="fill:#ffffff;fill-opacity:1;fill-rule:nonzero;stroke:none"
             d="m 0,0 -0.082,-4.721 -0.009,-0.6 -0.064,-3.466 c -0.054,-3.211 -1.273,-4.712 -3.448,-4.675 -2.091,0.035 -3.319,1.654 -3.265,4.783 l 0.064,3.685 0.063,4.02 0.018,1.01 v 0.301 l 0.028,1.592 -2.693,0.046 -1.437,0.027 -0.028,-1.438 -0.054,-3.375 -0.009,-0.627 -0.028,-1.447 v -0.318 l -0.054,-3.075 c -0.065,-3.484 0.864,-5.803 2.602,-7.122 1.173,-0.882 2.71,-1.319 4.575,-1.356 3.384,-0.055 5.831,1.211 7.005,3.948 h 0.009 c 0.473,1.101 0.745,2.438 0.782,4.03 0.008,0.064 0.008,0.127 0.008,0.191 L 4.03,-5.658 4.139,0.473 4.157,1.747 0.027,1.81 Z" /></g><g
           transform="translate(611.707,311.583)"
           id="g62"><path
             id="path64"
             style="fill:#ffffff;fill-opacity:1;fill-rule:nonzero;stroke:none"
             d="m 0,0 v -0.047 l -0.309,-3.42 4.93,-0.446 -0.481,-5.384 -0.109,-1.174 -0.737,-8.232 4.148,-0.372 1.328,14.79 4.984,-0.445 0.31,3.464 -13.945,1.256 z" /></g><g
           transform="translate(631.5469,309.5273)"
           id="g66"><path
             id="path68"
             style="fill:#ffffff;fill-opacity:1;fill-rule:nonzero;stroke:none"
             d="m 0,0 -1.282,0.199 -0.601,-3.912 -0.009,-0.017 -2.083,-13.536 -0.1,-0.655 7.804,-1.2 3.758,-0.583 0.482,3.157 h 0.009 l 0.027,0.209 -7.449,1.138 v 0.009 l 0.663,4.293 5.076,-0.774 1.592,-0.245 0.245,1.609 0.264,1.72 -6.667,1.028 0.582,3.766 1.128,-0.173 3.374,-0.518 2.539,-0.391 0.3,1.965 0.217,1.391 -4.683,0.718 z" /></g><g
           transform="translate(665.0039,293.0713)"
           id="g70"><path
             id="path72"
             style="fill:#ffffff;fill-opacity:1;fill-rule:nonzero;stroke:none"
             d="m 0,0 c -0.864,-3.202 -3.057,-5.54 -5.886,-4.768 -1.937,0.52 -2.92,2.212 -3.01,4.304 -0.037,0.864 0.073,1.801 0.336,2.756 0.418,1.573 1.146,2.911 2.092,3.803 0.556,0.536 1.183,0.909 1.883,1.073 l 0.01,0.009 C -3.967,7.332 -3.32,7.322 -2.629,7.141 -1.137,6.731 -0.272,5.676 0.1,4.339 0.481,3.038 0.399,1.474 0,0 m -0.592,9.934 c -0.327,0.127 -0.663,0.235 -1.018,0.336 -5.195,1.41 -9.706,-1.419 -11.198,-6.905 0,-0.009 -0.009,-0.026 -0.009,-0.036 -0.5,-1.874 -0.546,-3.656 -0.163,-5.239 0.681,-2.884 2.773,-5.104 6.075,-5.994 4.749,-1.292 9.534,0.882 11.143,6.812 C 5.039,1.855 4.757,4.667 3.375,6.813 2.502,8.178 1.183,9.26 -0.592,9.934" /></g><g
           transform="translate(670.3701,281.8281)"
           id="g74"><path
             id="path76"
             style="fill:#ffffff;fill-opacity:1;fill-rule:nonzero;stroke:none"
             d="m 0,0 3.902,-1.456 2.584,6.905 6.167,-2.32 1.174,3.139 -6.168,2.31 1.484,3.947 6.594,-2.473 1.192,3.183 -10.489,3.939 z" /></g><g
           transform="translate(361.7705,270.1367)"
           id="g78"><path
             id="path80"
             style="fill:#ffffff;fill-opacity:1;fill-rule:nonzero;stroke:none"
             d="M 0,0 4.244,-17.047 8.233,-16.271 3.99,0.775 Z" /></g><g
           transform="translate(381.6494,273.9258)"
           id="g82"><path
             id="path84"
             style="fill:#ffffff;fill-opacity:1;fill-rule:nonzero;stroke:none"
             d="m 0,0 1.201,-4.965 c 0.627,-2.583 1.263,-4.874 2.07,-7.08 L 3.192,-12.06 c -1.275,1.775 -2.81,3.711 -4.315,5.311 l -5.145,5.578 -4.648,-0.868 4.135,-17.074 3.656,0.683 -1.24,5.117 c -0.673,2.787 -1.315,5.209 -1.991,7.44 l 0.104,0.019 c 1.32,-1.845 3.023,-3.805 4.515,-5.459 l 5.374,-5.853 4.152,0.774 -4.135,17.075 z" /></g><g
           transform="translate(399.0342,262.2119)"
           id="g86"><path
             id="path88"
             style="fill:#ffffff;fill-opacity:1;fill-rule:nonzero;stroke:none"
             d="m 0,0 c -0.5,-0.088 -1.054,-0.159 -1.433,-0.173 l -2.583,11.191 c 0.349,0.14 0.909,0.318 1.772,0.469 C 1.213,12.095 3.767,10.589 4.585,7.038 5.53,2.952 3.619,0.609 0,0 M 4.326,13.83 C 2.343,14.749 0.03,14.976 -3.35,14.383 -5.313,14.038 -7.221,13.57 -8.633,13.085 l 3.877,-16.799 c 1.025,0.048 2.519,0.179 4.615,0.548 3.403,0.598 6.092,1.81 7.606,3.633 1.381,1.695 2.09,4.17 1.333,7.442 -0.696,3.021 -2.335,4.923 -4.472,5.921" /></g><g
           transform="translate(410.2051,278.958)"
           id="g90"><path
             id="path92"
             style="fill:#ffffff;fill-opacity:1;fill-rule:nonzero;stroke:none"
             d="M 0,0 3.745,-17.139 7.761,-16.485 4.018,0.654 Z" /></g><g
           transform="translate(426.1152,271.2412)"
           id="g94"><path
             id="path96"
             style="fill:#ffffff;fill-opacity:1;fill-rule:nonzero;stroke:none"
             d="m 0,0 0.362,3.819 c 0.08,1.005 0.119,2.372 0.169,3.401 l 0.08,0.01 C 1.063,6.269 1.622,5.034 2.132,4.056 L 3.908,0.521 Z m -2.453,9.832 -2.188,-17.939 4.174,0.556 0.432,4.588 5.097,0.679 2.208,-4.236 4.358,0.582 -8.8,16.474 z" /></g><g
           transform="translate(450.4229,283.4854)"
           id="g98"><path
             id="path100"
             style="fill:#ffffff;fill-opacity:1;fill-rule:nonzero;stroke:none"
             d="m 0,0 0.567,-5.042 c 0.295,-2.623 0.64,-4.959 1.163,-7.233 l -0.08,-0.004 c -1.047,1.908 -2.332,4.01 -3.632,5.774 l -4.429,6.146 -4.757,-0.268 1.951,-17.335 3.739,0.21 -0.584,5.196 c -0.318,2.828 -0.648,5.294 -1.039,7.577 l 0.107,0.005 c 1.084,-1.983 2.535,-4.129 3.814,-5.946 l 4.623,-6.444 4.248,0.238 -1.949,17.335 z" /></g><g
           transform="translate(735.3799,275.0459)"
           id="g102"><path
             id="path104"
             style="fill:#ffffff;fill-opacity:1;fill-rule:nonzero;stroke:none"
             d="m 0,0 c -2.343,0.767 -3.359,1.242 -3.305,2.299 0.045,0.856 0.962,1.659 2.774,1.709 1.81,0.048 3.102,-0.419 3.827,-0.701 L 4.36,6.427 C 3.315,6.851 1.827,7.188 -0.314,7.131 -4.649,7.014 -7.425,4.752 -7.573,1.857 c -0.13,-2.492 1.822,-3.947 4.867,-4.897 2.159,-0.645 3.005,-1.251 2.951,-2.282 -0.057,-1.108 -1.11,-1.866 -3.029,-1.918 -1.785,-0.047 -3.512,0.433 -4.583,0.933 l -1.015,-3.194 c 1.015,-0.501 3.073,-0.974 5.186,-0.917 5.102,0.138 7.561,2.642 7.707,5.487 C 4.636,-2.541 3.209,-1.02 0,0" /></g><g
           transform="translate(742.2969,273.377)"
           id="g106"><path
             id="path108"
             style="fill:#ffffff;fill-opacity:1;fill-rule:nonzero;stroke:none"
             d="m 0,0 c -0.592,-4.83 2.234,-8.625 8.594,-8.862 2.236,-0.082 4.006,0.255 4.81,0.554 l -0.259,3.042 C 12.289,-5.537 10.867,-5.737 9.611,-5.69 5.9,-5.552 3.978,-3.332 4.394,0.063 4.855,3.837 7.673,5.577 10.947,5.455 12.42,5.4 13.558,5.056 14.337,4.697 l 1.242,2.987 C 14.915,8.087 13.296,8.526 11.141,8.606 5.573,8.814 0.707,5.786 0,0" /></g><g
           transform="translate(758.0293,264.3096)"
           id="g110"><path
             id="path112"
             style="fill:#ffffff;fill-opacity:1;fill-rule:nonzero;stroke:none"
             d="M 0,0 4.139,-0.387 7.23,16.504 3.093,16.89 Z" /></g><g
           transform="translate(779.6631,275.9111)"
           id="g114"><path
             id="path116"
             style="fill:#ffffff;fill-opacity:1;fill-rule:nonzero;stroke:none"
             d="M 0,0 0.666,3.123 -10.5,4.48 l -3.589,-16.841 11.571,-1.407 0.664,3.124 -7.453,0.907 0.852,3.997 6.673,-0.811 0.661,3.099 -6.673,0.81 0.744,3.498 z" /></g><g
           transform="translate(793.8018,272.2793)"
           id="g118"><path
             id="path120"
             style="fill:#ffffff;fill-opacity:1;fill-rule:nonzero;stroke:none"
             d="m 0,0 c -0.576,-2.545 -1.01,-4.825 -1.242,-7.081 l -0.08,0.011 c -0.404,2.007 -0.978,4.241 -1.675,6.159 l -2.339,6.658 -4.775,0.636 -3.802,-16.81 3.756,-0.501 1.14,5.038 c 0.621,2.744 1.109,5.145 1.477,7.383 l 0.106,-0.014 c 0.414,-2.085 1.137,-4.391 1.798,-6.355 l 2.429,-6.979 4.268,-0.569 3.801,16.811 -3.758,0.501 z" /></g><g
           transform="translate(808.0537,260.5576)"
           id="g122"><path
             id="path124"
             style="fill:#ffffff;fill-opacity:1;fill-rule:nonzero;stroke:none"
             d="m 0,0 c -3.604,0.665 -5.135,3.16 -4.196,6.499 1.043,3.711 4.064,5.052 7.247,4.465 1.429,-0.265 2.487,-0.772 3.188,-1.239 l 1.683,2.811 C 7.337,13.034 5.825,13.703 3.73,14.091 -1.676,15.088 -6.902,12.748 -8.499,7.06 -9.832,2.31 -7.666,-1.89 -1.49,-3.029 0.682,-3.43 2.462,-3.342 3.294,-3.158 L 3.52,-0.076 C 2.64,-0.227 1.219,-0.225 0,0" /></g><g
           transform="translate(829.1777,266.6348)"
           id="g126"><path
             id="path128"
             style="fill:#ffffff;fill-opacity:1;fill-rule:nonzero;stroke:none"
             d="m 0,0 1.182,3.018 -10.646,3.089 -6.371,-16.268 11.029,-3.202 1.182,3.016 -7.105,2.063 1.512,3.862 6.362,-1.847 1.172,2.994 -6.362,1.846 1.324,3.38 z" /></g><g
           transform="translate(491.0508,188.1992)"
           id="g130"><path
             id="path132"
             style="fill:#ffffff;fill-opacity:1;fill-rule:nonzero;stroke:none"
             d="m 0,0 v -15.331 c -1.202,-3.065 -4.026,-5.107 -7.215,-5.107 -4.145,0 -7.512,4.026 -7.512,9.013 6.311,0 11.479,2.948 11.479,6.617 -0.057,2.1 -2.701,4.146 -6.37,4.808 z m -147.827,-3.908 c 0,-0.841 -0.541,-1.506 -1.205,-1.506 -0.661,0 -1.202,0.665 -1.202,1.506 v 6.61 c 0,0.842 0.541,1.502 1.202,1.502 0.664,0 1.205,-0.66 1.205,-1.502 z m 0,-13.524 c 0.056,-1.506 -0.785,-2.704 -1.803,-2.704 -1.325,0 -2.407,1.198 -2.407,2.704 0,1.502 1.082,2.701 2.407,2.701 h 1.803 z m 122.1,20.436 h -3.54 c -0.059,7.335 -7.154,13.224 -15.93,13.224 -5.649,-0.06 -10.216,-3.246 -10.216,-7.214 0,-1.623 0.841,-3.546 2.4,-5.41 h 9.021 c -1.325,1.083 -2.047,3.066 -2.047,5.41 -0.057,2.827 1.562,5.107 3.549,5.107 3.005,0 5.408,-4.987 5.408,-11.117 h -3.535 v 0.002 h -37.142 -1.207 -25.171 -1.211 -14.89 -15.571 v -3.008 h 3.008 v -12.322 h -7.211 v 11.721 c 0,3.966 -4.033,7.214 -9.02,7.214 -4.989,-0.063 -9.018,-3.248 -9.018,-7.214 0,-3.969 4.029,-7.211 9.018,-7.211 h 1.205 v -4.51 h -1.803 c -3.669,0 -6.614,-2.287 -6.614,-5.108 0.06,-3.489 3.786,-6.31 8.417,-6.31 4.326,0 7.815,2.821 7.815,6.31 v 2.701 h 7.211 v -9.311 c 0.06,-1.325 -1.322,-2.407 -3.008,-2.407 v -1.807 h 13.828 v 1.807 c -1.682,0 -3.008,1.082 -3.008,2.407 v 24.04 h 4.751 v 0.003 h 3.536 v -24.044 c 0.059,-1.325 -1.322,-2.407 -3.009,-2.407 v -1.806 h 13.828 v 1.806 c -1.682,0 -3.004,1.082 -3.004,2.407 V 0.001 h 3.539 1.211 5.459 c 4.808,0 8.717,-4.03 8.717,-9.021 -0.06,-4.506 -3.786,-8.113 -8.416,-8.113 -1.983,0 -3.786,0.301 -5.408,0.903 l -0.602,-1.807 c 1.619,0 4.087,-2.16 7.813,-6.006 2.584,-2.707 5.411,-4.213 7.815,-4.213 3.488,0 6.851,1.923 9.017,5.111 l -1.201,1.502 c -1.085,-1.325 -2.768,-2.099 -4.511,-2.099 -1.984,-0.068 -4.507,1.622 -6.91,4.503 6.794,1.141 11.781,5.231 11.781,9.622 -0.063,4.928 -5.171,9.134 -11.781,9.618 h 13.398 1.207 24.579 v -6.314 c -2.047,1.383 -5.168,2.104 -9.017,2.104 -7.995,0 -14.425,-5.528 -14.425,-12.326 0.059,-4.266 2.223,-8.533 6.009,-11.721 l 7.215,3.606 c -2.464,1.989 -3.847,5.655 -3.847,9.921 0,4.507 3.065,8.116 6.85,8.116 2.769,0 5.352,-0.844 7.215,-2.407 v -15.023 c 0.06,-1.325 -1.322,-2.407 -3.008,-2.407 v -1.806 h 13.829 v 1.806 c -1.683,0 -3.008,1.082 -3.008,2.407 V 0.001 h 3.538 V 0 h 4.747 v -24.648 c 0.061,-1.019 -1.321,-1.8 -3.008,-1.8 v -1.806 h 13.828 v 1.806 c -1.682,-0.06 -3.005,0.781 -3.005,1.8 V 0 h 3.54 1.211 5.58 c 3.486,0 6.313,-2.164 6.313,-4.808 0,-2.647 -2.827,-4.811 -6.313,-4.811 -2.287,-0.06 -4.026,0.181 -5.108,0.601 -0.063,-8.479 5.89,-15.33 13.224,-15.33 4.807,-0.06 8.897,2.046 10.82,5.411 v -5.107 c 0,-1.322 -1.445,-2.404 -3.248,-2.404 v -1.806 H 10.82 v 1.806 c -1.686,0 -3.005,1.082 -3.005,2.404 V 0 h 4.748 v 3.004 h -37.079 z" /></g><g
           transform="translate(530.5879,191.8037)"
           id="g134"><path
             id="path136"
             style="fill:#ffffff;fill-opacity:1;fill-rule:nonzero;stroke:none"
             d="m 0,0 c -0.481,0.541 -0.241,1.683 -0.241,4.206 0,3.669 2.945,6.613 6.551,6.613 7.034,0 13.287,-4.326 15.629,-10.819 h 7.816 C 26.871,7.936 17.609,13.224 6.609,13.224 -2.344,13.224 -9.618,9.197 -9.618,4.206 -9.555,2.884 -8.957,1.382 -7.815,0 Z" /></g><g
           transform="translate(641.3916,165.3564)"
           id="g138"><path
             id="path140"
             style="fill:#ffffff;fill-opacity:1;fill-rule:nonzero;stroke:none"
             d="m 0,0 c -1.319,0 -2.04,3.489 -2.04,7.813 0,4.629 0.601,8.416 2.04,8.416 C 1.445,16.169 1.806,12.442 1.806,7.813 1.806,3.489 1.325,0 0,0 m -84.062,4.205 c -1.623,-1.559 -3.545,-2.407 -5.412,-2.407 -3.424,0.066 -6.249,3.248 -6.249,7.218 0.06,3.965 2.825,7.213 6.249,7.213 1.923,0.061 3.911,-0.843 5.412,-2.406 z m 71.692,21.644 h -16.098 -1.216 -41.815 -1.21 -33.345 v 0.001 h -17.313 v -3.008 h 4.748 V -1.202 c 0.062,-1.322 -1.319,-2.403 -3.005,-2.403 v -1.807 h 13.824 v 1.807 c -1.682,0 -3.004,1.081 -3.004,2.403 v 24.044 h 4.75 v 0.002 h 21.992 v -6.615 c -1.922,2.285 -5.231,3.607 -9.017,3.607 -6.61,-0.061 -12.025,-4.871 -12.025,-10.82 0.063,-5.953 5.415,-10.824 12.025,-10.824 3.786,0 7.095,1.326 9.017,3.606 V -1.2 c 0.06,-1.325 -1.322,-2.407 -3.004,-2.407 v -1.806 h 13.821 v 1.806 c -1.683,0 -3.005,1.082 -3.005,2.407 v 24.044 h 3.541 1.21 30.466 v -4.811 c -6.49,0 -12.743,2.404 -19.234,2.404 -5.288,0 -9.618,-2.945 -9.618,-6.614 0,-3.305 3.489,-6.01 7.816,-6.01 h 5.107 c 2.464,0 4.507,-1.742 4.507,-3.909 -0.057,-2.821 -3.244,-5.104 -7.211,-5.104 -4.267,0 -7.875,0.842 -10.219,2.4 l -1.205,-2.099 c 3.189,-1.149 5.956,-3.132 8.115,-5.712 2.228,-2.648 5.412,-4.207 8.717,-4.207 2.525,0 4.932,1.499 6.314,3.906 l -1.202,1.198 c -1.262,-0.714 -1.926,-1.081 -2.347,-1.081 -1.622,0.06 -3.425,1.205 -4.867,3.188 h 3.307 c 5.53,0.06 9.976,3.249 9.976,7.211 0,3.668 -3.125,6.614 -6.971,6.614 h -7.214 c -1.802,0 -3.249,1.626 -3.249,3.605 0,1.983 1.866,3.609 4.151,3.609 5.168,0 10.098,-2.404 15.327,-2.404 V -1.2 c 0.063,-1.325 -1.32,-2.407 -3.005,-2.407 v -1.806 h 13.824 v 1.806 c -1.679,0 -3.004,1.082 -3.004,2.407 v 24.044 h 3.534 1.216 3.531 V -1.2 c 0.061,-1.325 -1.322,-2.407 -3.007,-2.407 v -1.806 h 13.828 v 1.806 c -1.683,0 -3.005,1.082 -3.005,2.407 v 24.044 h 3.54 V 22.842 H 16.234 V 14.727 C 11.784,17.311 6.195,18.632 0,18.632 -6.307,18.575 -11.422,13.765 -11.422,7.813 -11.422,2.164 -6.307,-2.406 0,-2.406 c 6.195,0 11.184,4.57 11.184,10.219 0,3.184 -1.623,6.012 -4.267,7.514 4.507,-0.781 7.691,-1.923 9.317,-3.305 V -1.201 c 0.057,-1.322 -1.325,-2.404 -3.007,-2.404 v -1.806 h 13.824 v 1.806 c -1.683,0 -3.004,1.082 -3.004,2.404 v 24.043 h 4.747 v 3.005 H -12.37 Z" /></g><g
           transform="translate(720.7061,196.9131)"
           id="g142"><path
             id="path144"
             style="fill:#ffffff;fill-opacity:1;fill-rule:nonzero;stroke:none"
             d="m 0,0 c 1.986,0 3.609,1.623 3.609,3.605 0,1.987 -1.623,3.61 -3.609,3.61 -1.983,0 -3.605,-1.623 -3.605,-3.61 C -3.605,1.623 -1.983,0 0,0" /></g><g
           transform="translate(748.0557,164.4541)"
           id="g146"><path
             id="path148"
             style="fill:#ffffff;fill-opacity:1;fill-rule:nonzero;stroke:none"
             d="m 0,0 c -1.803,-0.063 -4.207,1.626 -6.61,4.508 6.794,1.264 11.781,5.411 11.781,9.918 0,4.747 -5.408,8.837 -12.382,9.317 h 19.837 v 3.008 h -32.22 -43.865 v -3.005 h 6.069 c 5.168,0 9.318,-4.03 9.318,-9.02 0.059,-4.328 -4.15,-7.813 -9.318,-7.813 -1.923,-0.059 -3.425,0.177 -4.506,0.602 l -0.602,-1.807 c 2.224,-0.841 4.627,-2.701 6.911,-5.405 2.587,-3.065 5.531,-4.814 8.115,-4.814 3.306,-0.056 6.735,1.749 9.319,4.814 l -1.503,1.499 c -0.905,-1.142 -2.707,-1.799 -4.811,-1.799 -1.382,-0.067 -3.605,1.622 -6.009,4.503 6.553,0.301 11.782,4.511 11.782,9.622 -0.064,4.928 -5.172,9.134 -11.782,9.618 h 19.233 V 10.822 c -1.082,-1.024 -2.344,-1.565 -3.606,-1.565 -1.322,0 -2.764,0.421 -4.206,1.262 l -0.601,-2.404 c 1.382,-0.842 3.065,-1.261 4.807,-1.261 1.262,0.059 2.524,0.356 3.606,0.96 v -8.112 c 0.063,-1.325 -1.322,-2.407 -3.005,-2.407 v -1.806 h 13.828 v 1.806 c -1.683,0 -3.008,1.082 -3.008,2.407 v 24.044 h 3.834 v -0.003 h 5.168 c 5.649,-0.059 10.219,-3.785 10.219,-8.416 0,-4.627 -4.45,-8.416 -9.918,-8.416 -1.499,-0.057 -2.824,0.18 -3.906,0.605 l -0.601,-1.81 c 2.223,-0.838 4.627,-2.697 6.914,-5.405 2.584,-3.065 5.529,-4.811 8.113,-4.811 2.707,-0.06 5.829,1.746 8.416,4.811 l -1.203,1.8 C 2.467,0.778 1.145,0 0,0" /></g><g
           transform="translate(756.8955,174.7939)"
           id="g150"><path
             id="path152"
             style="fill:#ffffff;fill-opacity:1;fill-rule:nonzero;stroke:none"
             d="M 0,0 C -1.265,0 -2.527,0.36 -3.729,1.081 L -4.63,-1.021 c 1.563,-0.906 3.128,-1.383 4.51,-1.383 1.803,0 3.306,0.357 4.507,1.079 L 3.786,1.081 C 2.581,0.36 1.263,0 0,0" /></g><g
           transform="translate(828.7559,165.3564)"
           id="g154"><path
             id="path156"
             style="fill:#ffffff;fill-opacity:1;fill-rule:nonzero;stroke:none"
             d="m 0,0 c -1.319,0 -2.04,3.489 -2.04,7.813 0,4.629 0.601,8.416 2.04,8.416 C 1.445,16.169 1.806,12.442 1.806,7.813 1.806,3.489 1.325,0 0,0 m -57.265,16.53 v 6.01 c 0.061,1.142 1.446,2.106 3.185,2.106 1.566,-0.063 2.828,-0.964 2.828,-2.106 v -6.01 c 0,-1.144 -1.262,-2.106 -2.828,-2.106 -1.739,0.063 -3.185,0.962 -3.185,2.106 m 86.059,6.312 v 3.005 H -12.37 v 0.002 h -16.101 -14.966 v -3.008 h 2.401 V 6.913 c -0.899,-3.009 -4.688,-5.115 -9.318,-5.115 -4.807,0 -8.713,2.948 -8.713,6.617 8.656,0 15.63,5.107 15.63,11.421 0,3.97 -5.111,7.211 -11.42,7.211 -5.653,-0.057 -10.223,-3.241 -10.223,-7.211 0,-4.33 4.57,-7.815 10.223,-7.815 -1.326,-1.142 -4.03,-1.803 -7.515,-1.803 -2.348,0 -4.09,0.301 -5.111,0.901 -0.061,-7.632 5.892,-13.824 13.223,-13.824 6.012,0.057 10.944,2.046 13.224,5.411 V -1.2 c 0.063,-1.325 -1.319,-2.406 -3.005,-2.406 v -1.807 h 13.824 v 1.807 c -1.679,0 -3.004,1.081 -3.004,2.406 v 24.041 h 4.75 v 0.003 h 3.534 V -1.2 c 0.061,-1.325 -1.322,-2.407 -3.007,-2.407 v -1.806 h 13.828 v 1.806 c -1.683,0 -3.005,1.082 -3.005,2.407 v 24.044 h 3.54 V 22.842 H 16.234 V 14.727 C 11.784,17.311 6.195,18.632 0,18.632 -6.307,18.575 -11.422,13.765 -11.422,7.813 -11.422,2.164 -6.307,-2.406 0,-2.406 c 6.195,0 11.184,4.57 11.184,10.219 0,3.184 -1.623,6.012 -4.267,7.514 4.507,-0.781 7.691,-1.923 9.317,-3.305 V -1.201 c 0.057,-1.322 -1.325,-2.404 -3.007,-2.404 v -1.806 h 13.824 v 1.806 c -1.683,0 -3.004,1.082 -3.004,2.404 v 24.043 z" /></g></g></g></g></svg>